<svg fill="#ffffff" role="img" viewBox="0 0 24 24" xmlns="http://www.w3.org/2000/svg"><title>Bazzite</title><path d="M5 1c-2.2 0-4 1.8-4 4v14c0 2.8 2.2 5 5 5h10c2.8 0 5-2.2 5-5 0-1.5-.6-2.8-1.6-3.8C17.8 12.9 17 11 17 9c0-1.1-.2-2.2-.5-3.2C15.7 3.5 13.5 2 11 2H5V1z" fill-rule="evenodd"/><path d="M10 8h4v1.2h-4zM10 15h4v1.2h-4zM8 10h1.2v4H8zM14.8 10H16v4h-1.2z" opacity="0.85"/><polygon points="12,6.2 10.8,8 13.2,8" opacity="0.85"/><polygon points="12,17.8 10.8,16 13.2,16" opacity="0.85"/><polygon points="6.2,12 8,10.8 8,13.2" opacity="0.85"/><polygon points="17.8,12 16,10.8 16,13.2" opacity="0.85"/></svg>