<svg fill="#ffffff" role="img" viewBox="0 0 24 24" xmlns="http://www.w3.org/2000/svg"><title>Kubuntu</title><path d="M16.021.696A11.997 11.997 0 007.794.763C1.589 3.086-1.558 9.999.765 16.204c2.323 6.205 9.236 9.352 15.441 7.029 6.205-2.323 9.352-9.236 7.029-15.441A11.997 11.997 0 0016.021.696zm5.236 13.596a.207.207 0 01.11.237l-.577 1.529a.206.206 0 01-.203.155l-2.337-.228c-.063.001-.162-.008-.278.126-.018.02-.747.933-.978 1.183-.079.071-.107.165-.088.281l.552 2.196a.206.206 0 01-.098.231l-1.513.891a.206.206 0 01-.256-.042l-1.549-1.706c-.052-.055-.155-.099-.227-.076l-1.645.239c-.08.011-.127.064-.16.116l-.994 2.079a.206.206 0 01-.235.089l-1.669-.395a.207.207 0 01-.146-.182.209.209 0 01.011-.082l.881-3.244a.222.222 0 01.283-.137l.003-.001a5.842 5.842 0 002.717.218c2.322-.37 4.196-2.095 4.756-4.379l.011-.041c.028-.119.177-.183.296-.155 0 0 2.868.974 3.294 1.082a.209.209 0 01.039.014zM5.539 4.99l.001.001a.205.205 0 01.066.049l2.392 2.357a.222.222 0 01-.019.314l-.001.003A5.842 5.842 0 006.459 9.976c-.813 2.206-.224 4.685 1.494 6.29l.035.04c.091.083.068.234-.015.324 0 0-2.245 2.024-2.547 2.343a.206.206 0 01-.292.007l-1.052-1.251a.206.206 0 01-.036-.253l1.335-1.925c.03-.055.086-.138.026-.304-.009-.025-.448-1.108-.554-1.432-.023-.103-.092-.174-.202-.214l-2.179-.594a.206.206 0 01-.154-.199l-.037-1.755a.207.207 0 01.162-.203l2.238-.516c.074-.018.163-.087.177-.161l.596-1.552c.03-.076.007-.142-.023-.197L4.111 6.54a.206.206 0 01.037-.249l1.16-1.263a.207.207 0 01.231-.038zm10.49-1.747a.214.214 0 01.032.015l1.538.845a.207.207 0 01.095.241l-.68 2.198c-.021.073-.006.184.051.234l1.046 1.292c.05.064.119.077.182.079l2.3-.203a.206.206 0 01.197.157l.513 1.636a.206.206 0 01-.082.219h-.001a.205.205 0 01-.075.033l-3.244.894a.222.222 0 01-.262-.173.012.012 0 01-.003-.002 5.842 5.842 0 00-1.201-2.447c-1.504-1.807-3.945-2.537-6.194-1.851l-.04.012c-.117.037-.248-.06-.285-.177 0 0-.624-2.958-.748-3.379a.206.206 0 01.14-.257l1.609-.286a.206.206 0 01.237.096l.993 2.12c.033.053.076.144.25.174.027.005 1.184.166 1.517.237.101.032.197.007.286-.068l1.611-1.592a.206.206 0 01.218-.049z"/></svg>
