<svg fill="#ffffff" role="img" viewBox="0 0 24 24" xmlns="http://www.w3.org/2000/svg"><title>Lingmo</title><path d="M8 0L16 0C18.80 0 20.20 0 21.27 0.54C22.21 1.02 22.98 1.79 23.46 2.73C24 3.80 24 5.20 24 8L24 16C24 18.80 24 20.20 23.46 21.27C22.98 22.21 22.21 22.98 21.27 23.46C20.20 24 18.80 24 16 24L8 24C5.20 24 3.80 24 2.73 23.46C1.79 22.98 1.02 22.21 0.54 21.27C0 20.20 0 18.80 0 16L0 8C0 5.20 0 3.80 0.54 2.73C1.02 1.79 1.79 1.02 2.73 0.54C3.80 0 5.20 0 8 0Z M12.32 5.91C9.69 4.57 6.52 5.68 5.22 8.40C3.93 11.12 5.00 14.40 7.63 15.74C8.94 16.41 10.39 16.47 11.67 16.02C12.24 15.82 13.18 15.28 14.23 14.63C14.67 16.68 16.13 18.12 17.19 18.66L17.84 17.30C17.25 17.00 15.87 15.66 15.74 14.43C15.71 14.20 15.69 13.97 15.67 13.73C15.86 13.61 16.05 13.49 16.25 13.37C17.27 12.73 19.13 13.05 19.72 13.35L20.37 11.99C19.31 11.45 17.31 11.12 15.48 12.00C15.34 10.75 15.18 9.65 14.99 9.06C14.55 7.73 13.63 6.58 12.32 5.91ZM14.06 12.91C14.52 12.62 15.00 12.31 15.48 12.00C15.54 12.56 15.60 13.15 15.67 13.73C15.18 14.04 14.69 14.35 14.23 14.63C14.17 14.05 14.11 13.47 14.06 12.91ZM14.06 12.91C12.77 13.73 11.67 14.40 11.18 14.51C10.27 14.83 9.24 14.79 8.31 14.32C6.44 13.37 5.68 11.03 6.60 9.10C7.52 7.17 9.77 6.38 11.64 7.33C12.57 7.81 13.23 8.63 13.54 9.57C13.74 10.05 13.90 11.36 14.06 12.91Z" fill-rule="evenodd"/></svg>