<svg xmlns="http://www.w3.org/2000/svg" viewBox="0 0 64 64" fill="white">
  <path d="M32 4 C32 4 48 18 48 36 C48 44 44 52 32 60 C20 52 16 44 16 36 C16 18 32 4 32 4Z" fill="none" stroke="white" stroke-width="2.5" stroke-linejoin="round"/>
  <path d="M32 14 C32 14 40 24 40 34 C40 40 37 46 32 52 C27 46 24 40 24 34 C24 24 32 14 32 14Z" fill="white"/>
  <line x1="32" y1="4" x2="32" y2="60" stroke="white" stroke-width="1.5" opacity="0.4"/>
  <path d="M32 20 C36 24 38 30 36 36" fill="none" stroke="white" stroke-width="1.5" opacity="0.5"/>
  <path d="M32 28 C28 32 28 38 30 42" fill="none" stroke="white" stroke-width="1.5" opacity="0.5"/>
</svg>
