<svg xmlns="http://www.w3.org/2000/svg" viewBox="0 0 256 256">
  <path d="M52.9,74.6 C53.2,73.6 54.0,71.5 54.4,69.9 C54.9,68.3 55.1,66.7 55.5,65.2 C55.9,63.6 56.6,62.0 57.1,60.5 C57.5,58.9 57.8,57.3 58.1,55.8 C58.5,54.2 58.7,52.6 59.2,51.0 C59.6,49.5 59.8,47.6 60.7,46.3 C61.7,45.0 63.4,44.1 64.9,43.2 C66.4,42.3 68.1,41.8 69.6,41.1 C71.2,40.4 72.8,39.6 74.3,39.0 C75.9,38.4 77.5,38.0 79.1,37.4 C80.6,36.9 82.2,36.3 83.8,35.9 C85.3,35.4 86.9,35.2 88.5,34.8 C90.0,34.5 91.6,34.0 93.2,33.8 C94.8,33.5 96.3,33.3 97.9,33.2 C99.5,33.2 101.0,33.2 102.6,33.2 C104.2,33.3 105.8,33.5 107.3,33.8 C108.9,34.0 110.5,34.5 112.0,34.8 C113.6,35.2 115.2,35.4 116.7,35.9 C118.3,36.3 119.9,36.9 121.5,37.4 C123.0,38.0 124.6,38.3 126.2,39.0 C127.7,39.7 129.3,40.7 130.9,41.6 C132.4,42.5 134.0,43.4 135.6,44.2 C137.2,45.1 139.3,45.6 140.3,46.9 C141.3,48.1 141.9,50.0 141.9,51.6 C141.9,53.1 140.8,54.7 140.3,56.3 C139.8,57.8 139.3,59.4 138.7,61.0 C138.2,62.6 137.6,64.1 137.2,65.7 C136.7,67.3 136.5,68.8 136.1,70.4 C135.8,72.0 135.5,73.6 135.1,75.1 C134.6,76.7 134.0,78.3 133.5,79.8 C133.0,81.4 132.4,83.0 131.9,84.5 C131.5,86.1 131.2,87.7 130.9,89.3 C130.5,90.8 130.3,92.4 129.8,94.0 C129.4,95.5 128.8,97.1 128.3,98.7 C127.7,100.3 127.2,101.8 126.7,103.4 C126.2,105.0 125.6,106.5 125.1,108.1 C124.7,109.7 124.7,111.2 124.1,112.8 C123.5,114.4 122.7,116.8 121.5,117.5 C120.2,118.2 118.3,117.4 116.7,117.0 C115.2,116.7 113.6,116.0 112.0,115.4 C110.5,114.8 108.9,114.0 107.3,113.3 C105.8,112.7 104.2,112.2 102.6,111.8 C101.0,111.3 99.5,111.0 97.9,110.7 C96.3,110.5 94.8,110.5 93.2,110.2 C91.6,109.9 90.0,109.3 88.5,109.2 C86.9,109.0 85.3,109.2 83.8,109.2 C82.2,109.2 80.6,109.1 79.1,109.2 C77.5,109.2 75.9,109.5 74.3,109.7 C72.8,109.9 71.2,110.0 69.6,110.2 C68.1,110.4 66.5,110.5 64.9,110.7 C63.3,111.0 61.8,111.4 60.2,111.8 C58.6,112.1 57.2,112.4 55.5,112.8 C53.8,113.3 51.8,114.0 50.3,114.4 C48.7,114.8 47.4,115.5 46.1,115.4 C44.8,115.3 42.8,114.9 42.4,113.9 C42.0,112.8 43.0,110.7 43.5,109.2 C43.9,107.6 44.6,106.0 45.0,104.4 C45.5,102.9 45.7,101.3 46.1,99.7 C46.4,98.2 46.7,96.6 47.1,95.0 C47.6,93.4 48.2,91.9 48.7,90.3 C49.2,88.7 49.8,87.2 50.3,85.6 C50.7,84.0 51.0,82.5 51.3,80.9 C51.7,79.3 52.1,77.2 52.4,76.2 C52.6,75.1 52.5,75.6 52.9,74.6 Z" fill="white"/>
  <path d="M139.3,98.2 C139.5,97.2 139.9,95.0 140.3,93.4 C140.7,91.9 141.4,90.3 141.9,88.7 C142.3,87.2 142.5,85.6 142.9,84.0 C143.4,82.5 144.0,80.9 144.5,79.3 C145.0,77.7 145.6,76.2 146.1,74.6 C146.5,73.0 146.7,71.5 147.1,69.9 C147.5,68.3 148.2,66.7 148.7,65.2 C149.1,63.6 149.1,62.0 149.7,60.5 C150.3,58.9 151.1,56.5 152.3,55.8 C153.6,55.0 155.5,55.4 157.1,55.8 C158.6,56.1 160.2,57.2 161.8,57.8 C163.3,58.5 164.9,58.9 166.5,59.4 C168.0,59.9 169.6,60.5 171.2,61.0 C172.8,61.5 174.3,62.0 175.9,62.6 C177.5,63.1 179.0,63.7 180.6,64.1 C182.2,64.6 183.8,64.8 185.3,65.2 C186.9,65.5 188.5,66.1 190.0,66.2 C191.6,66.4 193.2,66.2 194.7,66.2 C196.3,66.2 197.9,66.2 199.5,66.2 C201.0,66.2 202.6,66.3 204.2,66.2 C205.7,66.1 207.3,65.9 208.9,65.7 C210.5,65.5 211.9,65.4 213.6,65.2 C215.3,64.9 217.3,64.4 218.8,64.1 C220.4,63.9 221.6,63.8 223.0,63.6 C224.4,63.4 225.7,63.3 227.2,63.1 C228.7,62.8 230.4,61.9 231.9,62.0 C233.4,62.1 235.7,62.6 236.1,63.6 C236.5,64.7 235.1,66.7 234.5,68.3 C233.9,69.9 233.1,71.5 232.4,73.0 C231.8,74.6 231.3,76.2 230.9,77.7 C230.4,79.3 230.3,80.9 229.8,82.5 C229.4,84.0 228.8,85.6 228.3,87.2 C227.7,88.7 227.1,90.3 226.7,91.9 C226.2,93.4 226.1,95.0 225.6,96.6 C225.2,98.2 224.5,99.7 224.1,101.3 C223.6,102.9 223.5,104.4 223.0,106.0 C222.6,107.6 221.9,109.2 221.4,110.7 C221.0,112.3 220.7,113.9 220.4,115.4 C220.1,117.0 219.9,118.6 219.4,120.1 C218.8,121.7 218.2,123.3 217.3,124.9 C216.3,126.4 215.0,128.4 213.6,129.6 C212.2,130.7 210.5,131.0 208.9,131.7 C207.3,132.4 205.7,133.2 204.2,133.8 C202.6,134.3 201.0,134.4 199.5,134.8 C197.9,135.2 196.3,135.9 194.7,136.4 C193.2,136.8 191.6,137.2 190.0,137.4 C188.5,137.7 186.9,137.8 185.3,137.9 C183.8,138.1 182.2,138.4 180.6,138.5 C179.0,138.6 177.5,138.5 175.9,138.5 C174.3,138.5 172.8,138.6 171.2,138.5 C169.6,138.4 168.0,138.1 166.5,137.9 C164.9,137.8 163.3,137.7 161.8,137.4 C160.2,137.2 158.6,136.8 157.1,136.4 C155.5,135.9 153.9,135.3 152.3,134.8 C150.8,134.3 149.2,133.8 147.6,133.2 C146.1,132.6 144.5,131.8 142.9,131.1 C141.3,130.5 139.8,130.3 138.2,129.6 C136.6,128.9 134.5,128.1 133.5,127.0 C132.4,125.8 132.0,124.2 131.9,122.8 C131.8,121.3 132.5,119.6 133.0,118.1 C133.4,116.5 134.0,114.9 134.5,113.3 C135.1,111.8 135.6,110.2 136.1,108.6 C136.6,107.1 137.2,105.5 137.7,103.9 C138.1,102.3 138.5,100.2 138.7,99.2 C139.0,98.2 139.0,99.1 139.3,98.2 Z" fill="white"/>
  <path d="M29.8,159.4 C30.3,157.8 31.0,156.3 31.4,154.7 C31.8,153.1 32.0,151.6 32.5,150.0 C32.9,148.4 33.6,146.8 34.0,145.3 C34.5,143.7 34.6,142.1 35.1,140.6 C35.5,139.0 36.0,137.4 36.6,135.9 C37.3,134.3 37.6,132.5 38.7,131.1 C39.9,129.7 41.9,128.3 43.5,127.5 C45.0,126.6 46.6,126.5 48.2,125.9 C49.7,125.3 51.3,124.3 52.9,123.8 C54.4,123.3 56.0,123.1 57.6,122.8 C59.2,122.4 60.7,122.1 62.3,121.7 C63.9,121.4 65.4,120.9 67.0,120.7 C68.6,120.4 70.2,120.3 71.7,120.1 C73.3,120.0 74.9,119.7 76.4,119.6 C78.0,119.5 79.6,119.6 81.1,119.6 C82.7,119.6 84.3,119.6 85.9,119.6 C87.4,119.6 89.0,119.4 90.6,119.6 C92.1,119.8 93.7,120.3 95.3,120.7 C96.9,121.0 98.4,121.4 100.0,121.7 C101.6,122.1 103.1,122.2 104.7,122.8 C106.3,123.3 107.8,124.2 109.4,124.9 C111.0,125.6 112.7,126.0 114.1,127.0 C115.5,127.9 117.3,129.2 117.8,130.6 C118.3,132.0 117.6,133.8 117.3,135.3 C116.9,136.9 116.1,138.5 115.7,140.0 C115.3,141.6 115.1,143.2 114.7,144.8 C114.2,146.3 113.6,147.9 113.1,149.5 C112.6,151.0 111.9,152.6 111.5,154.2 C111.1,155.7 110.9,157.3 110.5,158.9 C110.0,160.5 109.3,162.0 108.9,163.6 C108.5,165.2 108.2,166.7 107.8,168.3 C107.5,169.9 107.2,171.5 106.8,173.0 C106.4,174.6 105.8,176.2 105.2,177.7 C104.7,179.3 104.2,180.9 103.7,182.4 C103.1,184.0 102.5,185.6 102.1,187.2 C101.6,188.7 101.5,190.3 101.0,191.9 C100.6,193.4 100.2,195.1 99.5,196.6 C98.8,198.1 98.1,200.0 96.9,200.8 C95.6,201.6 93.7,201.5 92.1,201.3 C90.6,201.1 89.0,200.2 87.4,199.7 C85.9,199.3 84.3,199.0 82.7,198.7 C81.1,198.3 79.6,198.1 78.0,197.6 C76.4,197.2 74.9,196.5 73.3,196.1 C71.7,195.6 70.2,195.3 68.6,195.0 C67.0,194.7 65.4,194.7 63.9,194.5 C62.3,194.3 60.7,194.1 59.2,194.0 C57.6,193.8 56.0,193.5 54.4,193.4 C52.9,193.4 51.3,193.4 49.7,193.4 C48.2,193.4 46.6,193.4 45.0,193.4 C43.5,193.5 41.9,193.7 40.3,194.0 C38.7,194.2 37.2,194.7 35.6,195.0 C34.0,195.3 32.5,195.2 30.9,195.5 C29.2,195.9 27.2,196.8 25.7,197.1 C24.1,197.4 22.2,197.9 21.5,197.1 C20.7,196.3 20.8,194.0 20.9,192.4 C21.1,190.8 22.1,189.3 22.5,187.7 C22.9,186.1 23.2,184.5 23.6,183.0 C23.9,181.4 24.2,179.8 24.6,178.3 C25.0,176.7 25.7,175.1 26.2,173.5 C26.6,172.0 26.8,170.4 27.2,168.8 C27.7,167.3 28.4,165.7 28.8,164.1 C29.2,162.6 29.4,161.0 29.8,159.4 Z" fill="white"/>
  <path d="M115.2,181.4 C115.5,180.0 115.8,178.3 116.2,176.7 C116.7,175.1 117.4,173.5 117.8,172.0 C118.2,170.4 118.4,168.8 118.8,167.3 C119.3,165.7 119.9,164.1 120.4,162.6 C120.9,161.0 121.5,159.4 122.0,157.8 C122.4,156.3 122.6,154.7 123.0,153.1 C123.5,151.6 124.2,150.0 124.6,148.4 C125.0,146.8 125.2,145.3 125.6,143.7 C126.1,142.1 126.2,140.0 127.2,139.0 C128.3,137.9 130.4,137.4 131.9,137.4 C133.5,137.4 135.1,138.4 136.6,139.0 C138.2,139.6 139.8,140.4 141.3,141.1 C142.9,141.8 144.5,142.6 146.1,143.2 C147.6,143.8 149.2,144.3 150.8,144.8 C152.3,145.2 153.9,145.4 155.5,145.8 C157.1,146.2 158.6,146.9 160.2,147.4 C161.8,147.8 163.3,148.2 164.9,148.4 C166.5,148.7 168.0,148.9 169.6,148.9 C171.2,149.0 172.8,148.9 174.3,148.9 C175.9,148.9 177.5,149.0 179.0,148.9 C180.6,148.9 182.2,148.7 183.8,148.4 C185.3,148.2 187.0,147.6 188.5,147.4 C189.9,147.1 191.1,147.2 192.7,146.8 C194.2,146.5 196.2,145.7 197.9,145.3 C199.5,144.8 200.9,144.7 202.6,144.2 C204.3,143.8 206.4,142.9 207.8,142.7 C209.3,142.4 211.1,141.9 211.5,142.7 C211.9,143.4 210.9,145.8 210.5,147.4 C210.0,148.9 209.4,150.5 208.9,152.1 C208.4,153.7 207.7,155.2 207.3,156.8 C206.9,158.4 206.7,159.9 206.3,161.5 C205.8,163.1 205.2,164.6 204.7,166.2 C204.2,167.8 203.6,169.4 203.1,170.9 C202.7,172.5 202.5,174.1 202.1,175.6 C201.6,177.2 201.0,178.8 200.5,180.4 C200.0,181.9 199.4,183.5 198.9,185.1 C198.5,186.6 198.3,188.2 197.9,189.8 C197.5,191.3 196.8,192.9 196.3,194.5 C195.9,196.1 195.7,197.6 195.3,199.2 C194.8,200.8 194.2,202.3 193.7,203.9 C193.2,205.5 192.8,207.1 192.1,208.6 C191.4,210.2 190.7,212.1 189.5,213.3 C188.3,214.6 186.4,215.3 184.8,216.0 C183.2,216.6 181.7,217.0 180.1,217.5 C178.5,218.0 176.9,218.7 175.4,219.1 C173.8,219.5 172.2,219.8 170.7,220.1 C169.1,220.5 167.5,220.9 166.0,221.2 C164.4,221.4 162.8,221.5 161.2,221.7 C159.7,221.9 158.1,222.1 156.5,222.2 C155.0,222.3 153.4,222.2 151.8,222.2 C150.2,222.2 148.7,222.3 147.1,222.2 C145.5,222.1 144.0,222.0 142.4,221.7 C140.8,221.4 139.3,221.0 137.7,220.7 C136.1,220.3 134.5,220.1 133.0,219.6 C131.4,219.2 129.8,218.6 128.3,218.0 C126.7,217.5 125.1,217.1 123.6,216.5 C122.0,215.9 120.4,215.2 118.8,214.4 C117.3,213.6 115.7,212.7 114.1,211.8 C112.6,210.8 110.3,209.9 109.4,208.6 C108.5,207.3 108.8,205.5 108.9,203.9 C109.0,202.3 109.5,200.8 109.9,199.2 C110.4,197.6 111.0,196.1 111.5,194.5 C112.0,192.9 112.6,191.3 113.1,189.8 C113.5,188.2 113.8,186.5 114.1,185.1 C114.5,183.7 114.8,182.8 115.2,181.4 Z" fill="white"/>
</svg>