<svg xmlns="http://www.w3.org/2000/svg" viewBox="0 0 256 256">
  <circle cx="128" cy="128" r="120" fill="none" stroke="white" stroke-width="14"/>
  <path d="M48 62 C48 52, 56 44, 66 44 L116 44 C120 44, 122 48, 118 52 L74 82 C66 88, 54 84, 48 76 Z" fill="white"/>
  <path d="M140 44 L190 44 C200 44, 208 52, 208 62 L208 76 C202 84, 190 88, 182 82 L138 52 C134 48, 136 44, 140 44 Z" fill="white"/>
  <path d="M48 180 C48 190, 56 198, 66 198 L74 198 C86 198, 94 190, 94 180 L94 108 C94 102, 88 98, 82 102 L56 122 C50 126, 48 132, 48 138 Z" fill="white"/>
  <path d="M138 102 C132 98, 126 102, 126 108 L126 180 C126 190, 134 198, 146 198 L190 198 C200 198, 208 190, 208 180 L208 138 C208 132, 206 126, 200 122 L174 102 C168 98, 162 98, 156 102 Z" fill="white"/>
</svg>
