<svg xmlns="http://www.w3.org/2000/svg" viewBox="0 0 256 256">
  <circle cx="128" cy="128" r="120" fill="none" stroke="white" stroke-width="12"/>
  <path d="M52 68 C52 58, 60 50, 70 50 L118 50 C122 50, 124 54, 120 58 L78 82 C72 86, 64 84, 58 78 Z" fill="white"/>
  <path d="M138 50 L186 50 C196 50, 204 58, 204 68 L204 78 C204 84, 196 86, 190 82 L148 58 C144 54, 142 50, 138 50 Z" fill="white"/>
  <path d="M52 138 L52 148 C52 158, 60 166, 70 166 L78 166 C84 166, 92 158, 92 152 L92 108 C92 104, 88 102, 84 106 L58 128 C54 132, 52 134, 52 138 Z" fill="white"/>
  <path d="M138 106 C134 102, 130 104, 130 108 L130 152 C130 158, 138 166, 144 166 L186 166 C196 166, 204 158, 204 148 L204 138 C204 134, 202 132, 198 128 L172 106 C166 102, 158 104, 152 108 Z" fill="white"/>
</svg>
